<svg xmlns="http://www.w3.org/2000/svg" width="540" height="540" viewBox="0 0 540 540"><rect width="540" height="540" fill="#fbfaf4"/><g transform="translate(10,10)"><svg width="160" height="135" viewBox="0 0 160 135" role="img" aria-label="Финни, форма 1, окраска 1"><ellipse cx="80" cy="125" rx="48" ry="7" fill="#dce9e2"/><g fill="#9ed8bb" stroke="#284b40" stroke-width="2.5" stroke-linejoin="round"><path d="M31 81C26 29 131 21 129 81L136 102Q132 114 117 106Q111 125 94 118H66Q48 125 43 106Q25 114 23 101Z"/></g><g fill="#294b40"><circle cx="61" cy="65" r="4"/><circle cx="99" cy="65" r="4"/><path d="M71 76Q80 84 89 76" fill="none" stroke="#294b40" stroke-width="3" stroke-linecap="round"/></g><g color="#64745c" fill="currentColor"><circle cx="62" cy="91" r="3"/><circle cx="80" cy="99" r="3"/><circle cx="98" cy="91" r="3"/></g><circle cx="48" cy="77" r="6" fill="#eea58d"/><circle cx="111" cy="77" r="6" fill="#eea58d"/></svg><text x="80" y="158" text-anchor="middle" font-family="sans-serif" font-size="12">Форма 1 · окраска 1</text></g><g transform="translate(190,10)"><svg width="160" height="135" viewBox="0 0 160 135" role="img" aria-label="Финни, форма 1, окраска 2"><ellipse cx="80" cy="125" rx="48" ry="7" fill="#dce9e2"/><g fill="#f4bf87" stroke="#284b40" stroke-width="2.5" stroke-linejoin="round"><path d="M31 81C26 29 131 21 129 81L136 102Q132 114 117 106Q111 125 94 118H66Q48 125 43 106Q25 114 23 101Z"/></g><g fill="#294b40"><circle cx="61" cy="65" r="4"/><circle cx="99" cy="65" r="4"/><path d="M71 76Q80 84 89 76" fill="none" stroke="#294b40" stroke-width="3" stroke-linecap="round"/></g><g color="#64745c" fill="currentColor"><path d="M58 91h44M66 99h28" fill="none" stroke="currentColor" stroke-width="3"/></g><circle cx="48" cy="77" r="6" fill="#eea58d"/><circle cx="111" cy="77" r="6" fill="#eea58d"/></svg><text x="80" y="158" text-anchor="middle" font-family="sans-serif" font-size="12">Форма 1 · окраска 2</text></g><g transform="translate(370,10)"><svg width="160" height="135" viewBox="0 0 160 135" role="img" aria-label="Финни, форма 1, окраска 3"><ellipse cx="80" cy="125" rx="48" ry="7" fill="#dce9e2"/><g fill="#c5b3ed" stroke="#284b40" stroke-width="2.5" stroke-linejoin="round"><path d="M31 81C26 29 131 21 129 81L136 102Q132 114 117 106Q111 125 94 118H66Q48 125 43 106Q25 114 23 101Z"/></g><g fill="#294b40"><circle cx="61" cy="65" r="4"/><circle cx="99" cy="65" r="4"/><path d="M71 76Q80 84 89 76" fill="none" stroke="#294b40" stroke-width="3" stroke-linecap="round"/></g><g color="#64745c" fill="currentColor"><path d="m80 86 3 6 7 1-5 5 1 7-6-3-6 3 1-7-5-5 7-1z"/></g><circle cx="48" cy="77" r="6" fill="#eea58d"/><circle cx="111" cy="77" r="6" fill="#eea58d"/></svg><text x="80" y="158" text-anchor="middle" font-family="sans-serif" font-size="12">Форма 1 · окраска 3</text></g><g transform="translate(10,190)"><svg width="160" height="135" viewBox="0 0 160 135" role="img" aria-label="Финни, форма 2, окраска 1"><ellipse cx="80" cy="125" rx="48" ry="7" fill="#dce9e2"/><g fill="#9ed8bb" stroke="#284b40" stroke-width="2.5" stroke-linejoin="round"><path d="M43 50L39 15L64 40M96 40L121 15L116 55"/><path d="M31 81C26 29 131 21 129 81L136 102Q132 114 117 106Q111 125 94 118H66Q48 125 43 106Q25 114 23 101Z"/></g><g fill="#294b40"><circle cx="61" cy="65" r="4"/><circle cx="99" cy="65" r="4"/><path d="M71 76Q80 84 89 76" fill="none" stroke="#294b40" stroke-width="3" stroke-linecap="round"/></g><g color="#64745c" fill="currentColor"><circle cx="62" cy="91" r="3"/><circle cx="80" cy="99" r="3"/><circle cx="98" cy="91" r="3"/></g><circle cx="48" cy="77" r="6" fill="#eea58d"/><circle cx="111" cy="77" r="6" fill="#eea58d"/></svg><text x="80" y="158" text-anchor="middle" font-family="sans-serif" font-size="12">Форма 2 · окраска 1</text></g><g transform="translate(190,190)"><svg width="160" height="135" viewBox="0 0 160 135" role="img" aria-label="Финни, форма 2, окраска 2"><ellipse cx="80" cy="125" rx="48" ry="7" fill="#dce9e2"/><g fill="#f4bf87" stroke="#284b40" stroke-width="2.5" stroke-linejoin="round"><path d="M43 50L39 15L64 40M96 40L121 15L116 55"/><path d="M31 81C26 29 131 21 129 81L136 102Q132 114 117 106Q111 125 94 118H66Q48 125 43 106Q25 114 23 101Z"/></g><g fill="#294b40"><circle cx="61" cy="65" r="4"/><circle cx="99" cy="65" r="4"/><path d="M71 76Q80 84 89 76" fill="none" stroke="#294b40" stroke-width="3" stroke-linecap="round"/></g><g color="#64745c" fill="currentColor"><path d="M58 91h44M66 99h28" fill="none" stroke="currentColor" stroke-width="3"/></g><circle cx="48" cy="77" r="6" fill="#eea58d"/><circle cx="111" cy="77" r="6" fill="#eea58d"/></svg><text x="80" y="158" text-anchor="middle" font-family="sans-serif" font-size="12">Форма 2 · окраска 2</text></g><g transform="translate(370,190)"><svg width="160" height="135" viewBox="0 0 160 135" role="img" aria-label="Финни, форма 2, окраска 3"><ellipse cx="80" cy="125" rx="48" ry="7" fill="#dce9e2"/><g fill="#c5b3ed" stroke="#284b40" stroke-width="2.5" stroke-linejoin="round"><path d="M43 50L39 15L64 40M96 40L121 15L116 55"/><path d="M31 81C26 29 131 21 129 81L136 102Q132 114 117 106Q111 125 94 118H66Q48 125 43 106Q25 114 23 101Z"/></g><g fill="#294b40"><circle cx="61" cy="65" r="4"/><circle cx="99" cy="65" r="4"/><path d="M71 76Q80 84 89 76" fill="none" stroke="#294b40" stroke-width="3" stroke-linecap="round"/></g><g color="#64745c" fill="currentColor"><path d="m80 86 3 6 7 1-5 5 1 7-6-3-6 3 1-7-5-5 7-1z"/></g><circle cx="48" cy="77" r="6" fill="#eea58d"/><circle cx="111" cy="77" r="6" fill="#eea58d"/></svg><text x="80" y="158" text-anchor="middle" font-family="sans-serif" font-size="12">Форма 2 · окраска 3</text></g><g transform="translate(10,370)"><svg width="160" height="135" viewBox="0 0 160 135" role="img" aria-label="Финни, форма 3, окраска 1"><ellipse cx="80" cy="125" rx="48" ry="7" fill="#dce9e2"/><g fill="#9ed8bb" stroke="#284b40" stroke-width="2.5" stroke-linejoin="round"><path d="M61 39L73 14L79 34L91 20L96 43"/><path d="M31 81C26 29 131 21 129 81L136 102Q132 114 117 106Q111 125 94 118H66Q48 125 43 106Q25 114 23 101Z"/></g><g fill="#294b40"><circle cx="61" cy="65" r="4"/><circle cx="99" cy="65" r="4"/><path d="M71 76Q80 84 89 76" fill="none" stroke="#294b40" stroke-width="3" stroke-linecap="round"/></g><g color="#64745c" fill="currentColor"><circle cx="62" cy="91" r="3"/><circle cx="80" cy="99" r="3"/><circle cx="98" cy="91" r="3"/></g><circle cx="48" cy="77" r="6" fill="#eea58d"/><circle cx="111" cy="77" r="6" fill="#eea58d"/></svg><text x="80" y="158" text-anchor="middle" font-family="sans-serif" font-size="12">Форма 3 · окраска 1</text></g><g transform="translate(190,370)"><svg width="160" height="135" viewBox="0 0 160 135" role="img" aria-label="Финни, форма 3, окраска 2"><ellipse cx="80" cy="125" rx="48" ry="7" fill="#dce9e2"/><g fill="#f4bf87" stroke="#284b40" stroke-width="2.5" stroke-linejoin="round"><path d="M61 39L73 14L79 34L91 20L96 43"/><path d="M31 81C26 29 131 21 129 81L136 102Q132 114 117 106Q111 125 94 118H66Q48 125 43 106Q25 114 23 101Z"/></g><g fill="#294b40"><circle cx="61" cy="65" r="4"/><circle cx="99" cy="65" r="4"/><path d="M71 76Q80 84 89 76" fill="none" stroke="#294b40" stroke-width="3" stroke-linecap="round"/></g><g color="#64745c" fill="currentColor"><path d="M58 91h44M66 99h28" fill="none" stroke="currentColor" stroke-width="3"/></g><circle cx="48" cy="77" r="6" fill="#eea58d"/><circle cx="111" cy="77" r="6" fill="#eea58d"/></svg><text x="80" y="158" text-anchor="middle" font-family="sans-serif" font-size="12">Форма 3 · окраска 2</text></g><g transform="translate(370,370)"><svg width="160" height="135" viewBox="0 0 160 135" role="img" aria-label="Финни, форма 3, окраска 3"><ellipse cx="80" cy="125" rx="48" ry="7" fill="#dce9e2"/><g fill="#c5b3ed" stroke="#284b40" stroke-width="2.5" stroke-linejoin="round"><path d="M61 39L73 14L79 34L91 20L96 43"/><path d="M31 81C26 29 131 21 129 81L136 102Q132 114 117 106Q111 125 94 118H66Q48 125 43 106Q25 114 23 101Z"/></g><g fill="#294b40"><circle cx="61" cy="65" r="4"/><circle cx="99" cy="65" r="4"/><path d="M71 76Q80 84 89 76" fill="none" stroke="#294b40" stroke-width="3" stroke-linecap="round"/></g><g color="#64745c" fill="currentColor"><path d="m80 86 3 6 7 1-5 5 1 7-6-3-6 3 1-7-5-5 7-1z"/></g><circle cx="48" cy="77" r="6" fill="#eea58d"/><circle cx="111" cy="77" r="6" fill="#eea58d"/></svg><text x="80" y="158" text-anchor="middle" font-family="sans-serif" font-size="12">Форма 3 · окраска 3</text></g></svg>
